<?xml version="1.0" standalone="no"?>
<!DOCTYPE svg PUBLIC "-//W3C//DTD SVG 20010904//EN"
 "http://www.w3.org/TR/2001/REC-SVG-20010904/DTD/svg10.dtd">
<svg version="1.0" xmlns="http://www.w3.org/2000/svg"
 width="128.000000pt" height="128.000000pt" viewBox="0 0 128.000000 128.000000"
 preserveAspectRatio="xMidYMid meet">

<g transform="translate(0.000000,128.000000) scale(0.100000,-0.100000)"
fill="#000000" stroke="none">
<path d="M310 970 c-41 -41 -29 -64 107 -201 l127 -129 -127 -129 c-133 -135
-143 -153 -111 -199 10 -15 25 -22 47 -22 27 0 49 18 159 127 l128 127 128
-127 c108 -106 134 -127 159 -127 37 0 63 27 63 65 0 23 -24 53 -127 157
l-127 128 127 128 c109 110 127 132 127 159 0 22 -7 37 -22 47 -46 32 -64 22
-199 -111 l-129 -127 -129 127 c-137 136 -160 148 -201 107z"/>
</g>
</svg>
