<svg id="Layer_1" data-name="Layer 1" xmlns="http://www.w3.org/2000/svg" xmlns:xlink="http://www.w3.org/1999/xlink" viewBox="0 0 62.5 88.72"><defs><style>.cls-1{fill:#f0f5ff;}.cls-2{clip-path:url(#clip-path);}.cls-3{fill:#6c000c;}.cls-4{fill:#b70011;}</style><clipPath id="clip-path"><path id="SVGID" class="cls-1" d="M62.5,88.72H0V0H62.5Z"/></clipPath></defs><title>12111Artboard 8_1</title><path id="SVGID-2" data-name="SVGID" class="cls-1" d="M62.5,88.72H0V0H62.5Z"/><g class="cls-2"><path class="cls-3" d="M-.65,99.46c-2,0-3.31-3.11-2.08-5.28a2,2,0,0,1,.89-.89L3.49,90.5C2.2,92.38.59,92.79-.16,92a2.56,2.56,0,0,1-.55-1.81Q1.06,70.39,2.58,49.8,4,30.23,5.09,11.28a4.26,4.26,0,0,0-.51-2A2.66,2.66,0,0,0,3.26,8L-1.65,6.17A3.49,3.49,0,0,1-3.46,2.46,8.9,8.9,0,0,1-3.16.84,6.13,6.13,0,0,1-2.39-.75,2.26,2.26,0,0,1-.52-1.84H13.75A2.42,2.42,0,0,1,15.84-.38l34,66q2.25,5,4.51,10c.25-2.43.58-6.09.82-10.55.56-10.22,0-12.06.28-22.55.19-6.67.16-13.35.54-20a24.54,24.54,0,0,0-1.53-11.24A16,16,0,0,0,52.61,8L47.7,6.17a3.52,3.52,0,0,1-1.81-3.71A8.81,8.81,0,0,1,46.2.84,6.1,6.1,0,0,1,47-.75a2.26,2.26,0,0,1,1.87-1.09H67.44c2,0,3.31,3.11,2.08,5.27a2,2,0,0,1-.9.89L62.71,7.15q5.07,1.19,5,1.92c0,.29-.66.54-1.92.72A96.48,96.48,0,0,1,73.5,48.35,93.88,93.88,0,0,1,61,95.19a4,4,0,0,1,3.42.81c2.89,2.41,2.67,8.87,1.64,9.45-1.26.72-4.89-6.8-7-5.89a3.3,3.3,0,0,1-1.43.37,3.67,3.67,0,0,1-1.75-.44,2.81,2.81,0,0,1-1.07-1.18L12.43,15.25c-.87-2.32-1.51-3.41-1.91-3.27q-.88.29-.28,8.36l1.44,65.91a3.34,3.34,0,0,0,1.91,3.26l5.95,2a3.43,3.43,0,0,1,1.89,3.73,8.9,8.9,0,0,1-.29,1.53,6.13,6.13,0,0,1-.77,1.59,2.27,2.27,0,0,1-1.87,1.1Z"/><path class="cls-3" d="M-5.84,85.22c-2.1,0-3.41-2.71-2.14-4.6a2,2,0,0,1,.92-.78l5.48-2.44c-1.33,1.65-3,2-3.76,1.31a2.18,2.18,0,0,1-.56-1.59q1.83-17.27,3.38-35.24Q-1,24.78.07,8.24A3.2,3.2,0,0,0-.46,6.48,2.59,2.59,0,0,0-1.82,5.42l-5-1.64A3,3,0,0,1-8.73.54,6.8,6.8,0,0,1-8.42-.87a5.27,5.27,0,0,1,.79-1.39,2.45,2.45,0,0,1,1.93-1H9a2.53,2.53,0,0,1,2.15,1.28l35,57.65q2.33,4.35,4.64,8.7c.26-2.12.6-5.31.85-9.21.57-8.92,0-10.53.28-19.68.21-5.82.17-11.66.57-17.47a18.58,18.58,0,0,0-1.58-9.82A13.84,13.84,0,0,0,49,5.42L43.94,3.78A3,3,0,0,1,42.08.54a6.8,6.8,0,0,1,.31-1.41,5.27,5.27,0,0,1,.79-1.39,2.45,2.45,0,0,1,1.93-1H64.26c2.1,0,3.41,2.71,2.14,4.6a2,2,0,0,1-.92.78L59.39,4.64q5.22,1,5.19,1.67c0,.26-.67.47-2,.64a73.41,73.41,0,0,1,7.9,33.66A73.08,73.08,0,0,1,57.67,81.5a4.71,4.71,0,0,1,3.53.7c3,2.11,2.75,7.75,1.69,8.26-1.31.62-5-5.94-7.21-5.15a3.63,3.63,0,0,1-1.46.33,4.23,4.23,0,0,1-1.81-.39,2.65,2.65,0,0,1-1.1-1L7.63,11.71c-.9-2-1.56-3-2-2.86-.61.18-.7,2.61-.28,7.31L6.86,73.69a2.89,2.89,0,0,0,2,2.85L15,78.28a2.93,2.93,0,0,1,1.94,3.27,6.28,6.28,0,0,1-.3,1.33,5,5,0,0,1-.79,1.39,2.42,2.42,0,0,1-1.92,1Z"/><path class="cls-4" d="M2.92,87.48c.81-.39.28-2,.83-3q21.36-34.7,42.71-69.39c.24-.52.6-1.3,1.07-2.22,1-2,1.44-2.37,1.34-2.86s-.82-1.26-4.82-1.27L14.87,7a1.47,1.47,0,0,0-1.46,1.18l-2,13.57c-1.31,1.66-3.14,2.28-4.58,1.59a3.86,3.86,0,0,1-1.64-1.71Q2.81,13.63.42,5.6A6.41,6.41,0,0,1-.11,2.1a5.82,5.82,0,0,1,4-4.76l53.27.32c3.37-3.71,7.51-3.89,9.1-1.91s.84,5.88.27,7.63A9.64,9.64,0,0,1,65.47,5.6a7.1,7.1,0,0,1-1.88,1.9L18.91,79A1.77,1.77,0,0,0,20,81.7l31.46,2.71A1.5,1.5,0,0,0,53,83.09l2.58-18.43a15.62,15.62,0,0,1,2.95.32,4.33,4.33,0,0,1,2.41,1A3.35,3.35,0,0,1,62,68.15a3.2,3.2,0,0,1-.12,1c.27,2.09.5,4.3.65,6.63a101.64,101.64,0,0,1,0,13.65c.61,1.55.49,2.22.27,2.55s-.59.32-1.34.63a6.76,6.76,0,0,0-1.6,1l-40.42.64C-8.41,98-4.17,90.89,2.92,87.48Z"/></g></svg>