<?xml version="1.0" standalone="no"?>
<!DOCTYPE svg PUBLIC "-//W3C//DTD SVG 20010904//EN"
 "http://www.w3.org/TR/2001/REC-SVG-20010904/DTD/svg10.dtd">
<svg version="1.0" xmlns="http://www.w3.org/2000/svg"
 width="63.000000pt" height="89.000000pt" viewBox="0 0 63.000000 89.000000"
 preserveAspectRatio="xMidYMid meet">

<g transform="translate(0.000000,89.000000) scale(0.100000,-0.100000)"
fill="#000000" stroke="none">
<path d="M0 445 l0 -445 315 0 315 0 0 445 0 445 -315 0 -315 0 0 -445z m403
359 c55 -4 87 -10 87 -17 0 -12 -140 -247 -146 -247 -2 0 -35 63 -74 140 l-70
140 58 -5 c31 -3 96 -7 145 -11z m-125 -374 c-13 -28 -155 -250 -160 -250 -11
0 -14 472 -3 497 9 19 18 7 87 -110 43 -72 77 -134 76 -137z m234 -156 c-7
-12 -20 5 -56 70 -27 46 -48 88 -48 93 0 4 24 47 54 94 l53 86 3 -164 c1 -90
-1 -171 -6 -179z m-107 -84 c36 -71 65 -133 65 -136 0 -4 -39 -4 -87 0 -153
12 -193 18 -193 30 0 7 25 52 56 102 80 128 84 134 89 134 3 0 34 -58 70 -130z"/>
</g>
</svg>
